<?xml version="1.0" encoding="utf-8"?>
<!-- Generator: Adobe Illustrator 19.0.0, SVG Export Plug-In . SVG Version: 6.00 Build 0)  -->
<svg version="1.1" id="图层_1" xmlns="http://www.w3.org/2000/svg" xmlns:xlink="http://www.w3.org/1999/xlink" x="0px" y="0px"
	 width="200px" height="40px" viewBox="-849 476 200 40" style="enable-background:new -849 476 200 40;" xml:space="preserve">
<style type="text/css">
	.st0{fill:#FFFFFF;}
</style>
<g id="XMLID_2837_">
	<g id="XMLID_2845_">
		<path id="XMLID_2853_" class="st0" d="M-769,508.5h2.5c1.4,0,2.5-1.1,2.5-2.5v-20c0-1.4-1.1-2.5-2.5-2.5h-2.5
			c-0.2,0-0.4,0.2-0.4,0.4V508C-769.4,508.3-769.2,508.5-769,508.5z"/>
		<g id="XMLID_2849_">
			<path id="XMLID_2427_" class="st0" d="M-682,489.4v13.3c0,3.2,2.6,5.8,5.8,5.8h18.3c3.2,0,5.8-2.6,5.8-5.8v-13.3
				c0-3.2-2.6-5.8-5.8-5.8h-18.3C-679.4,483.5-682,486.1-682,489.4z M-676.6,500.9v-10.3c0-1.2,1.3-2.5,2.9-2.5h13.2
				c1.6,0,2.9,1.3,2.9,2.9v9.9c0,1.6-1.3,2.9-2.9,2.9h-13.2C-675.3,503.8-676.6,503-676.6,500.9z"/>
		</g>
		<path id="XMLID_2848_" class="st0" d="M-771.7,493.5h-14.7V484c0-0.2-0.2-0.4-0.4-0.4h-2.5c-1.4,0-2.5,1.1-2.5,2.5V506
			c0,1.4,1.1,2.5,2.5,2.5h2.5c0.2,0,0.4-0.2,0.4-0.4v-8.7c0-0.9,0.7-1.7,1.7-1.7h11.1c0.2,0,0.3-0.1,0.4-0.2l1.9-3.3
			C-771.2,493.8-771.4,493.5-771.7,493.5z"/>
		<path id="XMLID_2426_" class="st0" d="M-722.9,507.8l-12.8-23c-0.4-0.8-1.3-1.3-2.2-1.3h-3.3c-0.9,0-1.7,0.5-2.2,1.3l-12.8,23
			c-0.2,0.3,0,0.6,0.4,0.6h4.6c0.2,0,0.3-0.1,0.4-0.2l2.5-4.5c0.4-0.7,1.1-1.1,1.8-1.1h8.5c0.2,0,0.3-0.1,0.4-0.2l1.9-3.3
			c0.2-0.3,0-0.6-0.4-0.6h-9.3l5.8-10.5l11.3,20.3c0.1,0.1,0.2,0.2,0.4,0.2h4.6C-723,508.5-722.8,508.1-722.9,507.8z"/>
		<path id="XMLID_2846_" class="st0" d="M-690.7,503.8h-16.6c-1.6,0-2.9-1.3-2.9-2.9V484c0-0.2-0.2-0.4-0.4-0.4h-2.5
			c-1.4,0-2.5,1.1-2.5,2.5v16.6c0,3.2,2.6,5.8,5.8,5.8h17c0.2,0,0.3-0.1,0.4-0.2l2.1-3.8C-690.2,504.2-690.4,503.8-690.7,503.8z"/>
	</g>
	<g id="XMLID_44_">
		<g id="XMLID_2387_">
			<path id="XMLID_59_" class="st0" d="M-846.8,512.7c2.2,2.8,5.8,3.3,7.2,3.3h4l-0.9-20.5L-846.8,512.7z"/>
			<path id="XMLID_58_" class="st0" d="M-822.3,516h4c1.4,0,4.9-0.5,7.1-3.3l-10.2-17.2L-822.3,516z"/>
			<path id="XMLID_55_" class="st0" d="M-818.4,476h-4l1.2,4.9c0,0.6-0.3,1.1-0.8,1.3l0,0c-2.3,0.7-4.7,1-7,1c-2.4,0-4.7-0.3-7-1
				l0,0c-0.5-0.1-0.8-0.7-0.8-1.3l1.1-4.9h-4c-5.1,0-9.3,4.2-9.3,8.8v21.3c0,2.4,0.5,4.1,1.5,5.5l10.4-18.2l4.6,1
				c0.5,0.1,0.9,0.1,1.4,0.2c0.7,0.1,1.4,0.1,2.2,0.1c0.7,0,1.4,0,2.2-0.1c0.6-0.1,1-0.1,1.4-0.2l4.6-1l10.4,18.2
				c0.9-1.4,1.5-3.2,1.5-5.5v-21.3C-809,480.2-813.2,476-818.4,476z M-825.4,491.9c-0.5,0.1-1,0.1-1.4,0.2c-0.4,0-1.4,0.1-2.2,0.1
				c-0.7,0-1.7-0.1-2.2-0.1c-0.5-0.1-1-0.1-1.4-0.2l-4.2-0.9c0.1-0.8,0.9-1.9,1.7-1.6l3.4,0.6c0.9,0.1,1.8,0.2,2.7,0.2
				s1.8-0.1,2.7-0.2l3.4-0.6c0.8-0.2,1.6,0.8,1.7,1.6L-825.4,491.9z"/>
		</g>
	</g>
</g>
</svg>
